<?xml version="1.0" encoding="iso-8859-1"?>
<!-- Generator: Adobe Illustrator 19.0.0, SVG Export Plug-In . SVG Version: 6.00 Build 0)  -->
<svg version="1.1" id="Layer_1" xmlns="http://www.w3.org/2000/svg" xmlns:xlink="http://www.w3.org/1999/xlink" x="0px" y="0px"
	 viewBox="0 0 512 512" style="enable-background:new 0 0 512 512;" xml:space="preserve">
<g>
	<rect x="370.447" y="159.624" style="fill:#E7ECED;" width="96.376" height="72.282"/>
	<rect x="370.447" y="9.035" style="fill:#E7ECED;" width="96.376" height="78.306"/>
	<rect x="274.071" y="87.341" style="fill:#E7ECED;" width="96.376" height="72.282"/>
	<rect x="274.071" y="231.906" style="fill:#E7ECED;" width="96.376" height="78.306"/>
	<rect x="81.318" y="231.906" style="fill:#E7ECED;" width="96.376" height="78.306"/>
	<rect x="177.694" y="159.624" style="fill:#E7ECED;" width="96.376" height="72.282"/>
	<rect x="177.694" y="9.035" style="fill:#E7ECED;" width="96.376" height="78.306"/>
	<rect x="81.318" y="87.341" style="fill:#E7ECED;" width="96.376" height="72.282"/>
</g>
<g>
	<rect x="370.447" y="231.906" style="fill:#546A79;" width="96.376" height="78.306"/>
	<rect x="177.694" y="231.906" style="fill:#546A79;" width="96.376" height="78.306"/>
	<rect x="274.071" y="159.624" style="fill:#546A79;" width="96.376" height="72.282"/>
	<rect x="81.318" y="159.624" style="fill:#546A79;" width="96.376" height="72.282"/>
	<rect x="370.447" y="87.341" style="fill:#546A79;" width="96.376" height="72.282"/>
	<rect x="274.071" y="9.035" style="fill:#546A79;" width="96.376" height="78.306"/>
	<rect x="177.694" y="87.341" style="fill:#546A79;" width="96.376" height="72.282"/>
	<rect x="81.318" y="9.035" style="fill:#546A79;" width="96.376" height="78.306"/>
</g>
<polygon style="fill:#BBC0C2;" points="81.318,310.212 81.318,502.965 45.176,502.965 45.176,9.035 81.318,9.035 81.318,87.341 
	81.318,159.624 81.318,231.906 "/>
<path d="M475.859,0H36.141v512h54.212V319.247h385.506V0z M457.788,78.306h-78.306V18.071h78.306V78.306z M283.106,78.306V18.071
	h78.306v60.235H283.106z M361.412,96.376v54.212h-78.306V96.376H361.412z M265.035,78.306h-78.306V18.071h78.306V78.306z
	 M265.035,96.376v54.212h-78.306V96.376H265.035z M168.659,150.588H90.353V96.376h78.306V150.588z M90.353,168.659h78.306v54.212
	H90.353V168.659z M186.729,168.659h78.306v54.212h-78.306V168.659z M265.035,240.941v60.235h-78.306v-60.235H265.035z
	 M283.106,240.941h78.306v60.235h-78.306V240.941z M283.106,222.871v-54.212h78.306v54.212H283.106z M379.482,168.659h78.306v54.212
	h-78.306V168.659z M379.482,150.588V96.376h78.306v54.212H379.482z M168.659,18.071v60.235H90.353V18.071H168.659z M72.282,493.929
	H54.212V18.071h18.071v292.141v9.035V493.929z M90.353,240.941h78.306v60.235H90.353V240.941z M379.482,301.176v-60.235h78.306
	v60.235H379.482z"/>
<g>
</g>
<g>
</g>
<g>
</g>
<g>
</g>
<g>
</g>
<g>
</g>
<g>
</g>
<g>
</g>
<g>
</g>
<g>
</g>
<g>
</g>
<g>
</g>
<g>
</g>
<g>
</g>
<g>
</g>
</svg>
