<?xml version='1.0' encoding='iso-8859-1'?>
<!DOCTYPE svg PUBLIC '-//W3C//DTD SVG 1.1//EN' 'http://www.w3.org/Graphics/SVG/1.1/DTD/svg11.dtd'>
<svg version="1.1" xmlns="http://www.w3.org/2000/svg" viewBox="0 0 296.227 296.227" xmlns:xlink="http://www.w3.org/1999/xlink" enable-background="new 0 0 296.227 296.227">
  <path d="m167.363,48.003v-23.003h10.5c6.903,0 12.5-5.597 12.5-12.5s-5.596-12.5-12.5-12.5h-59.5c-6.903,0-12.5,5.597-12.5,12.5s5.597,12.5 12.5,12.5h10.5v23.003c-59.738,9.284-105.604,61.071-105.604,123.37 0,68.845 56.01,124.854 124.854,124.854s124.854-56.009 124.854-124.854c0.001-62.299-45.866-114.085-105.604-123.37zm79.824,110.87h-86.574v-86.574c45.086,5.656 80.918,41.488 86.574,86.574zm-198.928,12.5c-1.42109e-14-50.459 37.821-92.825 87.282-99.065 0.024-0.003 0.048-0.005 0.073-0.008v99.074c0,6.903 5.597,12.5 12.5,12.5h99.074c-0.003,0.024-0.005,0.049-0.008,0.073-6.188,49.052-48.188,87.281-99.065,87.281-55.061-0.001-99.856-44.795-99.856-99.855z"/>
</svg>
