<?xml version="1.0" encoding="utf-8"?>
<!-- Generator: Adobe Illustrator 25.2.0, SVG Export Plug-In . SVG Version: 6.00 Build 0)  -->
<svg version="1.1" id="Layer_1" xmlns="http://www.w3.org/2000/svg" xmlns:xlink="http://www.w3.org/1999/xlink" x="0px" y="0px"
	 viewBox="0 0 24 24" style="enable-background:new 0 0 24 24;" xml:space="preserve">
<style type="text/css">
	.st0{fill:none;stroke:#FFFFFF;stroke-width:1.5;stroke-linecap:round;}
</style>
<path class="st0" d="M3.4,8c0-1.7,1.3-3,3-3l0,0c1.7,0,3,1.3,3,3v13.4c0,0.3-0.3,0.6-0.6,0.6H4c-0.3,0-0.6-0.3-0.6-0.6V8z"/>
<path class="st0" d="M3.4,11h6"/>
<path class="st0" d="M6.4,5V2 M6.4,2h-1 M6.4,2h1"/>
<path class="st0" d="M14.6,8c0-1.7,1.3-3,3-3l0,0c1.7,0,3,1.3,3,3v13.4c0,0.3-0.3,0.6-0.6,0.6h-4.8c-0.3,0-0.6-0.3-0.6-0.6V8z"/>
<path class="st0" d="M14.6,11h6"/>
<path class="st0" d="M17.6,5V2 M17.6,2h-1 M17.6,2h1"/>
</svg>
